<?xml version="1.0" encoding="utf-8"?>
<!-- Generator: Adobe Illustrator 25.2.1, SVG Export Plug-In . SVG Version: 6.00 Build 0)  -->
<svg version="1.1" id="Layer_1" xmlns="http://www.w3.org/2000/svg" xmlns:xlink="http://www.w3.org/1999/xlink" x="0px" y="0px"
	 viewBox="0 0 1920 1080" style="enable-background:new 0 0 1920 1080;" xml:space="preserve">
<style type="text/css">
	.st0{fill-rule:evenodd;clip-rule:evenodd;fill:#EEA121;}
	.st1{fill-rule:evenodd;clip-rule:evenodd;fill:#676767;}
	.st2{font-family:'EthnocentricRg-BoldItalic';}
	.st3{font-size:61.3119px;}
	.st4{font-size:38.792px;}
</style>
<g>
	<path class="st0" d="M978.22,209.43c-20.55,0-37.21-16.66-37.21-37.21c0-20.53,16.66-37.2,37.21-37.2c20.55,0,37.2,16.66,37.2,37.2
		C1015.41,192.77,998.77,209.43,978.22,209.43 M927.26,235.42H772.45l136.94-20.83C914.16,222.48,920.21,229.54,927.26,235.42z
		 M1348.7,400.02l-36.52,4.24l-235.43-230.11l3.07-29.33l148.56,148.56l15.09,0.55L1348.7,400.02z M1275.49,456.43l-131.65-127.24
		l-4.2-30.41l153.89,145.12L1275.49,456.43z M1407.82,885.43v96.75l72.38-145.53L1407.82,885.43z M1333.7,982.17l72.38-145.53
		l-72.38,48.78V982.17z M1478.68,885.43v96.75l72.38-145.53L1478.68,885.43z M1548.02,885.43v96.75l72.39-145.53L1548.02,885.43z
		 M489.53,684.06c-10.99-21.97-16.49-46.54-16.49-73.66c0-53.26,20.7-97.05,61.9-131.19c27.88-23.11,60.76-38.4,98.6-45.93h184.93
		h195.89l156.36,149.49l147.98,290.45c64.58-81.46,161.86-249.78,116.56-347.42c74.52,54.18-11.91,231.39-48.76,293.34
		c83.31,0.23,166.61,0.49,249.92,0.73c76.1-159.94,59.9-413.33-174.07-369.13c5.37-52.96-49.85-89.6-94.04-62.36l-107.39-110.21
		l-0.51-14.49L1105.6,105.79c2.95-5.26,4.63-11.3,4.63-17.76c0-20.01-16.2-36.19-36.19-36.19c-18.08,0-33.07,13.27-35.76,30.6
		l-13.02,21.07c-13-8.59-28.57-13.59-45.32-13.59c-45.44,0-82.29,36.85-82.29,82.3l-155.39,22.85l-48-15.98l-84.34,60.99
		c-95.48,11.37-176.3,43.6-242.39,96.72c-74.72,60.02-116.27,136.37-124.62,229.05C318.75,617.44,401.88,657.49,489.53,684.06z"/>
	<path class="st1" d="M691.29,981.21h374.45l148.96-192.4H708.99c-53.82,0-104.63-7.24-157.43-18.23
		c-109.01-22.66-212.92-64.4-307.48-122.35c10.63,88.4,52.29,163.36,125,224.88C454.25,945.19,561.65,981.21,691.29,981.21"/>
</g>
<g>
	<text transform="matrix(1 0 0 1 515.9926 641.8975)" class="st2 st3">Bergen</text>
	<text transform="matrix(1 0 0 1 517.8549 688.9482)" class="st2 st4">Gravemaskin Service</text>
</g>
</svg>
