<svg id="undraw_Spreadsheet_re_cn18" xmlns="http://www.w3.org/2000/svg" width="863.119" height="604.96" viewBox="0 0 863.119 604.96">
  <path id="Path_165" data-name="Path 165" d="M1044.044,573.809H446.164a8.092,8.092,0,0,1-8.083-8.083V195.42h614.046V565.726A8.092,8.092,0,0,1,1044.044,573.809Z" transform="translate(-189.008 -179.858)" fill="#e6e6e6"/>
  <path id="Path_166" data-name="Path 166" d="M1024.546,546.842H461.73a8.18,8.18,0,0,1-8.171-8.171V233.711a8.18,8.18,0,0,1,8.171-8.171h562.816a8.18,8.18,0,0,1,8.171,8.171v304.96a8.18,8.18,0,0,1-8.171,8.171Z" transform="translate(-187.042 -176.032)" fill="#fff"/>
  <path id="Path_167" data-name="Path 167" d="M1051.894,208.609H437.849V189.7a8.092,8.092,0,0,1,8.083-8.083h597.879a8.092,8.092,0,0,1,8.083,8.083Z" transform="translate(-189.038 -181.612)" fill="#71a1c1"/>
  <circle id="Ellipse_48" data-name="Ellipse 48" cx="4.828" cy="4.828" r="4.828" transform="translate(263.815 8.964)" fill="#fff"/>
  <circle id="Ellipse_49" data-name="Ellipse 49" cx="4.828" cy="4.828" r="4.828" transform="translate(282.139 8.964)" fill="#fff"/>
  <circle id="Ellipse_50" data-name="Ellipse 50" cx="4.828" cy="4.828" r="4.828" transform="translate(300.463 8.964)" fill="#fff"/>
  <path id="Path_183" data-name="Path 183" d="M0,0H58.007V25.675H0Z" transform="translate(324.36 104.192)" fill="#34c38f"/>
  <path id="Path_184" data-name="Path 184" d="M0,0H58.007V25.675H0Z" transform="translate(440.375 157.445)" fill="#f1b44c"/>
  <rect id="Rectangle_110" data-name="Rectangle 110" width="58.007" height="25.675" transform="translate(324.36 237.324)" fill="#f1b44c"/>
  <path id="Path_185" data-name="Path 185" d="M0,0H58.007V25.675H0Z" transform="translate(440.375 290.576)" fill="#f1b44c"/>
  <path id="Path_187" data-name="Path 187" d="M0,0H58.007V25.675H0Z" transform="translate(729.461 317.203)" fill="#50a5f1"/>
  <path id="Path_186" data-name="Path 186" d="M0,0H58.007V25.675H0Z" transform="translate(671.453 210.697)" fill="#50a5f1"/>
  <path id="Path_182" data-name="Path 182" d="M0,0H116.015V25.675H0Z" transform="translate(498.383 210.697)" fill="#50a5f1"/>
  <path id="Path_188" data-name="Path 188" d="M0,0H116.015V25.675H0Z" transform="translate(498.383 76.615)" fill="#34c38f"/>
  <path id="Path_168" data-name="Path 168" d="M453.414,225.122V547.491h580.073V225.122Zm578.172,26.706H975.671v-24.8h55.915Zm-345,186.94v-24.8H800.316v24.8Zm113.732,1.9v24.8H686.585v-24.8Zm0-106.822v24.8H686.585v-24.8Zm-113.732-1.9v-24.8H800.316v24.8Zm0,53.411v-24.8H800.316v24.8Zm113.732,1.9v24.8H686.585v-24.8ZM684.682,358.651H628.768v-24.8h55.915Zm0,1.9v24.8H628.768v-24.8Zm0,26.706v24.8H628.768v-24.8Zm0,26.706v24.8H628.768v-24.8Zm117.536,0h55.915v24.8H802.219Zm0-1.9v-24.8h55.915v24.8Zm0-26.706v-24.8h55.915v24.8Zm0-26.706v-24.8h55.915v24.8Zm0-26.705v-24.8h55.915v24.8Zm0-26.706v-24.8h55.915v24.8Zm-1.9,0H686.585v-24.8H800.316Zm-115.634,0H628.768v-24.8h55.915Zm0,1.9v24.8H628.768v-24.8Zm-57.817,24.8H570.95v-24.8h55.916Zm0,1.9v24.8H570.95v-24.8Zm0,26.705v24.8H570.95v-24.8Zm0,26.706v24.8H570.95v-24.8Zm0,26.706v24.8H570.95v-24.8Zm0,26.705v24.8H570.95v-24.8Zm1.9,0h55.915v24.8H628.768Zm55.915,26.706v24.8H628.768v-24.8Zm1.9,0H800.316v24.8H686.585Zm115.634,0h55.915v24.8H802.219Zm0-1.9v-24.8h55.915v24.8Zm57.817-24.8h55.916v24.8H860.035Zm0-1.9v-24.8h55.916v24.8Zm0-26.705v-24.8h55.916v24.8Zm0-26.706v-24.8h55.916v24.8Zm0-26.706v-24.8h55.916v24.8Zm0-26.705v-24.8h55.916v24.8Zm0-26.706v-24.8h55.916v24.8Zm0-26.706v-24.8h55.916v24.8Zm-1.9,0H802.219v-24.8h55.915Zm-57.817,0H686.585v-24.8H800.316Zm-115.634,0H628.768v-24.8h55.915Zm-57.817,0H570.95v-24.8h55.916Zm0,1.9v24.8H570.95v-24.8Zm-57.818,24.8H513.133v-24.8h55.915Zm0,1.9v24.8H513.133v-24.8Zm0,26.706v24.8H513.133v-24.8Zm0,26.705v24.8H513.133v-24.8Zm0,26.706v24.8H513.133v-24.8Zm0,26.706v24.8H513.133v-24.8Zm0,26.705v24.8H513.133v-24.8Zm0,26.706v24.8H513.133v-24.8Zm1.9,0h55.916v24.8H570.95Zm55.916,26.705v24.8H570.95v-24.8Zm1.9,0h55.915v24.8H628.768Zm57.817,0H800.316v24.8H686.585Zm115.634,0h55.915v24.8H802.219Zm57.817,0h55.916v24.8H860.035Zm0-1.9v-24.8h55.916v24.8Zm57.818-24.8h55.915v24.8H917.853Zm0-1.9v-24.8h55.915v24.8Zm0-26.706v-24.8h55.915v24.8Zm0-26.705v-24.8h55.915v24.8Zm0-26.706v-24.8h55.915v24.8Zm0-26.706v-24.8h55.915v24.8Zm0-26.705v-24.8h55.915v24.8Zm0-26.706v-24.8h55.915v24.8Zm0-26.706v-24.8h55.915v24.8Zm0-26.705v-24.8h55.915v24.8Zm-1.9,0H860.035v-24.8h55.916Zm-57.818,0H802.219v-24.8h55.915Zm-57.817,0H686.585v-24.8H800.316Zm-115.634,0H628.768v-24.8h55.915Zm-57.817,0H570.95v-24.8h55.916Zm-57.818,0H513.133v-24.8h55.915Zm0,1.9v24.8H513.133v-24.8Zm-57.817,24.8H455.316v-24.8h55.915Zm0,1.9v24.8H455.316v-24.8Zm0,26.706v24.8H455.316v-24.8Zm0,26.706v24.8H455.316v-24.8Zm0,26.705v24.8H455.316v-24.8Zm0,26.706v24.8H455.316v-24.8Zm0,26.706v24.8H455.316v-24.8Zm0,26.705v24.8H455.316v-24.8Zm0,26.706v24.8H455.316v-24.8Zm0,26.705v24.8H455.316v-24.8Zm1.9,0h55.915v24.8H513.133Zm55.915,26.706v24.8H513.133v-24.8Zm1.9,0h55.916v24.8H570.95Zm57.818,0h55.915v24.8H628.768Zm57.817,0H800.316v24.8H686.585Zm115.634,0h55.915v24.8H802.219Zm57.817,0h55.916v24.8H860.035Zm57.818,0h55.915v24.8H917.853Zm0-1.9v-24.8h55.915v24.8Zm57.817-24.8h55.915v24.8H975.671Zm0-1.9v-24.8h55.915v24.8Zm0-26.705v-24.8h55.915v24.8Zm0-26.706v-24.8h55.915v24.8Zm0-26.705v-24.8h55.915v24.8Zm0-26.706v-24.8h55.915v24.8Zm0-26.706v-24.8h55.915v24.8Zm0-26.705v-24.8h55.915v24.8Zm0-26.706v-24.8h55.915v24.8Zm0-26.706v-24.8h55.915v24.8ZM511.231,227.024v24.8H455.316v-24.8ZM455.316,520.786h55.915v24.8H455.316Zm520.354,24.8v-24.8h55.915v24.8Z" transform="translate(-187.061 -176.085)" fill="#e6e6e6"/>
  <path id="Path_169" data-name="Path 169" d="M318.9,380.311s-29.346-6.762-45.486,5.635,20.542,40.573,20.542,40.573Z" transform="translate(-210.446 -156.606)" fill="#2f2e41"/>
  <path id="Path_170" data-name="Path 170" d="M340.316,529.785a11.333,11.333,0,0,1,8.5-15.159l5.931-39.835,15.584,13.969-8.021,35.686a11.395,11.395,0,0,1-21.991,5.338Z" transform="translate(-201.521 -144.371)" fill="#ffb8b8"/>
  <path id="Path_171" data-name="Path 171" d="M69.046,531.61l13.787-.915,3.032-53.613-20.347,1.35Z" transform="translate(8.322 60.6)" fill="#ffb8b8"/>
  <path id="Path_172" data-name="Path 172" d="M0,0H43.425V16.778H16.778A16.778,16.778,0,0,1,0,0H0Z" transform="translate(118.085 603.788) rotate(180)" fill="#2f2e41"/>
  <path id="Path_173" data-name="Path 173" d="M89.789,514.165l12.962,4.784,24.624-47.72-19.131-7.061Z" transform="translate(11.405 58.96)" fill="#ffb8b8"/>
  <path id="Path_174" data-name="Path 174" d="M0,0H43.425V16.778H16.778A16.778,16.778,0,0,1,0,0H0Z" transform="translate(134.712 599.171) rotate(-159.739)" fill="#2f2e41"/>
  <path id="Path_175" data-name="Path 175" d="M350.721,509.691s13.962,7.518,9.666,37.591l-4.3,113.846-23.734,51.9-20.406-5.37,12.994-42.233-17.184-74.107-2.254,134.6-19.332,3.222L258.356,505.395l35.443-16.11Z" transform="translate(-211.837 -142.53)" fill="#2f2e41"/>
  <circle id="Ellipse_51" data-name="Ellipse 51" cx="27.681" cy="27.681" r="27.681" transform="translate(61.298 155.566)" fill="#ffb8b8"/>
  <path id="Path_176" data-name="Path 176" d="M318.814,375.405l-13.962,22.554-20.406-20.406-38.149,26.7a7.216,7.216,0,0,0-2.562,8.614c5.868,14.51,20.9,57.4,16.546,106.988,0,0,29-7.518,59.071,1.074s37.591,5.37,37.591,5.37-7.518-54.775-3.222-66.589c3.564-9.8,10.822-42.508,13.194-53.377a4.9,4.9,0,0,0-2.4-5.32Z" transform="translate(-213.761 -156.996)" fill="#71a1c1"/>
  <path id="Path_177" data-name="Path 177" d="M351.438,398.253h0a4.908,4.908,0,0,1,5.424,3.549l18.181,65.652-4.3,39.739-20.406-3.222,2.148-27.924L337.452,440.6l9.926-38.711a4.908,4.908,0,0,1,4.06-3.64Z" transform="translate(-201.791 -154.1)" fill="#71a1c1"/>
  <path id="Path_178" data-name="Path 178" d="M278.784,310.823a19.73,19.73,0,0,1,18.192-9.679,38.661,38.661,0,0,1,10.994,3.077l18.1,7.059c4.682,1.827,9.811,4.064,11.843,8.661,1.886,4.267.479,9.194-.945,13.637l-6.77,21.116a64.27,64.27,0,0,0-3.836-13.948c-1.967-4.415-5.077-8.486-9.377-10.692-4.7-2.411-10.24-2.361-15.517-2.107-7.473.36-15.6,1.31-20.908,6.581a21.717,21.717,0,0,0-5.51,10.762,64.783,64.783,0,0,0-1.156,12.182,101,101,0,0,1-7.713-16.535,40.911,40.911,0,0,1-2.866-13.385,18.824,18.824,0,0,1,4.315-12.731c3.057-3.417,8.038-5.261,12.419-3.909" transform="translate(-211.21 -166.433)" fill="#2f2e41"/>
  <path id="Path_179" data-name="Path 179" d="M266.762,543.785a11.333,11.333,0,0,0-8.5-15.159l-5.931-39.835L236.749,502.76l8.021,35.686a11.395,11.395,0,0,0,21.992,5.338Z" transform="translate(-214.582 -142.593)" fill="#ffb8b8"/>
  <path id="Path_180" data-name="Path 180" d="M247.668,400.68h0a7.228,7.228,0,0,0-6.03,6.768l-6.154,123.071h22.554L265.557,465l-9.568-58.364a7.228,7.228,0,0,0-8.321-5.961Z" transform="translate(-214.743 -153.798)" fill="#71a1c1"/>
  <path id="Path_181" data-name="Path 181" d="M193.553,537.045H0v-2.374H193.983Z" transform="translate(0 67.915)" fill="#ccc"/>
</svg>
